<mxfile modified="2024-04-06T16:54:19.777Z" host="app.diagrams.net" agent="Mozilla/5.0 (X11; Linux x86_64) AppleWebKit/537.36 (KHTML, like Gecko) Chrome/123.0.0.0 Safari/537.36" etag="uipPWYmr9Y4GKB9vjajQ" version="24.2.1" type="device" pages="2">
  <diagram id="Ht1M8jgEwFfnCIfOTk4-" name="Page-1">
    <mxGraphModel dx="2074" dy="1679" grid="1" gridSize="10" guides="1" tooltips="1" connect="1" arrows="1" fold="1" page="1" pageScale="1" pageWidth="1169" pageHeight="827" math="0" shadow="0">
      <root>
        <mxCell id="0" />
        <mxCell id="1" parent="0" />
        <mxCell id="UEzPUAAOIrF-is8g5C7q-107" value="" style="rounded=0;whiteSpace=wrap;html=1;labelBackgroundColor=none;fillColor=none;container=1;pointerEvents=0;collapsible=0;recursiveResize=0;strokeColor=none;" parent="1" vertex="1">
          <mxGeometry x="170" y="57" width="1400" height="733" as="geometry" />
        </mxCell>
        <mxCell id="wuM9vbmEsTmZqt_nUGYa-3" style="edgeStyle=none;curved=1;rounded=0;orthogonalLoop=1;jettySize=auto;html=1;fontSize=12;startSize=8;endSize=8;" parent="UEzPUAAOIrF-is8g5C7q-107" source="WlgoB8xV70YwmdUqYnxU-7" target="WlgoB8xV70YwmdUqYnxU-8" edge="1">
          <mxGeometry relative="1" as="geometry" />
        </mxCell>
        <mxCell id="WlgoB8xV70YwmdUqYnxU-7" value="" style="sketch=0;points=[[0,0,0],[0.25,0,0],[0.5,0,0],[0.75,0,0],[1,0,0],[0,1,0],[0.25,1,0],[0.5,1,0],[0.75,1,0],[1,1,0],[0,0.25,0],[0,0.5,0],[0,0.75,0],[1,0.25,0],[1,0.5,0],[1,0.75,0]];outlineConnect=0;fontColor=#232F3E;fillColor=#C925D1;strokeColor=#ffffff;dashed=0;verticalLabelPosition=bottom;verticalAlign=top;align=center;html=1;fontSize=12;fontStyle=0;aspect=fixed;shape=mxgraph.aws4.resourceIcon;resIcon=mxgraph.aws4.codecommit;" parent="UEzPUAAOIrF-is8g5C7q-107" vertex="1">
          <mxGeometry x="100" y="20" width="78" height="78" as="geometry" />
        </mxCell>
        <mxCell id="wuM9vbmEsTmZqt_nUGYa-12" style="edgeStyle=none;curved=1;rounded=0;orthogonalLoop=1;jettySize=auto;html=1;fontSize=12;startSize=8;endSize=8;" parent="UEzPUAAOIrF-is8g5C7q-107" source="WlgoB8xV70YwmdUqYnxU-8" edge="1">
          <mxGeometry relative="1" as="geometry">
            <mxPoint x="360" y="59" as="targetPoint" />
          </mxGeometry>
        </mxCell>
        <mxCell id="WlgoB8xV70YwmdUqYnxU-8" value="" style="sketch=0;points=[[0,0,0],[0.25,0,0],[0.5,0,0],[0.75,0,0],[1,0,0],[0,1,0],[0.25,1,0],[0.5,1,0],[0.75,1,0],[1,1,0],[0,0.25,0],[0,0.5,0],[0,0.75,0],[1,0.25,0],[1,0.5,0],[1,0.75,0]];outlineConnect=0;fontColor=#232F3E;fillColor=#C925D1;strokeColor=#ffffff;dashed=0;verticalLabelPosition=bottom;verticalAlign=top;align=center;html=1;fontSize=12;fontStyle=0;aspect=fixed;shape=mxgraph.aws4.resourceIcon;resIcon=mxgraph.aws4.codebuild;" parent="UEzPUAAOIrF-is8g5C7q-107" vertex="1">
          <mxGeometry x="230" y="20" width="78" height="78" as="geometry" />
        </mxCell>
        <mxCell id="wuM9vbmEsTmZqt_nUGYa-4" value="&lt;font style=&quot;font-size: 12px;&quot;&gt;Source Code + Buildspec.yaml&lt;/font&gt;" style="text;strokeColor=none;fillColor=none;html=1;align=center;verticalAlign=middle;whiteSpace=wrap;rounded=0;fontSize=16;" parent="UEzPUAAOIrF-is8g5C7q-107" vertex="1">
          <mxGeometry x="118" y="120" width="60" height="30" as="geometry" />
        </mxCell>
        <mxCell id="wuM9vbmEsTmZqt_nUGYa-11" value="Codebuid Container Deploy on BUildspec.yaml" style="text;strokeColor=none;fillColor=none;html=1;align=center;verticalAlign=middle;whiteSpace=wrap;rounded=0;fontSize=16;" parent="UEzPUAAOIrF-is8g5C7q-107" vertex="1">
          <mxGeometry x="260" y="140" width="20" height="10" as="geometry" />
        </mxCell>
        <mxCell id="wuM9vbmEsTmZqt_nUGYa-15" value="" style="sketch=0;points=[[0,0,0],[0.25,0,0],[0.5,0,0],[0.75,0,0],[1,0,0],[0,1,0],[0.25,1,0],[0.5,1,0],[0.75,1,0],[1,1,0],[0,0.25,0],[0,0.5,0],[0,0.75,0],[1,0.25,0],[1,0.5,0],[1,0.75,0]];outlineConnect=0;fontColor=#232F3E;fillColor=#ED7100;strokeColor=#ffffff;dashed=0;verticalLabelPosition=bottom;verticalAlign=top;align=center;html=1;fontSize=12;fontStyle=0;aspect=fixed;shape=mxgraph.aws4.resourceIcon;resIcon=mxgraph.aws4.ecr;" parent="UEzPUAAOIrF-is8g5C7q-107" vertex="1">
          <mxGeometry x="362" y="220" width="78" height="78" as="geometry" />
        </mxCell>
        <mxCell id="wuM9vbmEsTmZqt_nUGYa-40" style="edgeStyle=none;curved=1;rounded=0;orthogonalLoop=1;jettySize=auto;html=1;strokeColor=#0B4D6A;fontSize=12;startSize=8;endSize=8;" parent="UEzPUAAOIrF-is8g5C7q-107" source="wuM9vbmEsTmZqt_nUGYa-22" target="wuM9vbmEsTmZqt_nUGYa-37" edge="1">
          <mxGeometry relative="1" as="geometry" />
        </mxCell>
        <mxCell id="wuM9vbmEsTmZqt_nUGYa-22" value="" style="sketch=0;points=[[0,0,0],[0.25,0,0],[0.5,0,0],[0.75,0,0],[1,0,0],[0,1,0],[0.25,1,0],[0.5,1,0],[0.75,1,0],[1,1,0],[0,0.25,0],[0,0.5,0],[0,0.75,0],[1,0.25,0],[1,0.5,0],[1,0.75,0]];outlineConnect=0;fontColor=#232F3E;fillColor=#ED7100;strokeColor=#ffffff;dashed=0;verticalLabelPosition=bottom;verticalAlign=top;align=center;html=1;fontSize=12;fontStyle=0;aspect=fixed;shape=mxgraph.aws4.resourceIcon;resIcon=mxgraph.aws4.ecs;" parent="UEzPUAAOIrF-is8g5C7q-107" vertex="1">
          <mxGeometry x="530" y="220" width="78" height="78" as="geometry" />
        </mxCell>
        <mxCell id="wuM9vbmEsTmZqt_nUGYa-23" style="edgeStyle=none;curved=1;rounded=0;orthogonalLoop=1;jettySize=auto;html=1;entryX=1;entryY=0.5;entryDx=0;entryDy=0;entryPerimeter=0;strokeColor=#0B4D6A;fontSize=12;startSize=8;endSize=8;" parent="UEzPUAAOIrF-is8g5C7q-107" source="wuM9vbmEsTmZqt_nUGYa-22" target="wuM9vbmEsTmZqt_nUGYa-15" edge="1">
          <mxGeometry relative="1" as="geometry" />
        </mxCell>
        <mxCell id="wuM9vbmEsTmZqt_nUGYa-16" value="" style="sketch=0;points=[[0,0,0],[0.25,0,0],[0.5,0,0],[0.75,0,0],[1,0,0],[0,1,0],[0.25,1,0],[0.5,1,0],[0.75,1,0],[1,1,0],[0,0.25,0],[0,0.5,0],[0,0.75,0],[1,0.25,0],[1,0.5,0],[1,0.75,0]];outlineConnect=0;fontColor=#232F3E;fillColor=#C925D1;strokeColor=#ffffff;dashed=0;verticalLabelPosition=bottom;verticalAlign=top;align=center;html=1;fontSize=12;fontStyle=0;aspect=fixed;shape=mxgraph.aws4.resourceIcon;resIcon=mxgraph.aws4.codedeploy;" parent="UEzPUAAOIrF-is8g5C7q-107" vertex="1">
          <mxGeometry x="360" y="20" width="80" height="80" as="geometry" />
        </mxCell>
        <mxCell id="WlgoB8xV70YwmdUqYnxU-2" style="edgeStyle=none;curved=1;rounded=0;orthogonalLoop=1;jettySize=auto;html=1;exitX=0;exitY=0.5;exitDx=0;exitDy=0;fontSize=12;startSize=8;endSize=8;" parent="UEzPUAAOIrF-is8g5C7q-107" edge="1">
          <mxGeometry relative="1" as="geometry">
            <mxPoint x="60" y="315" as="sourcePoint" />
            <mxPoint x="60" y="315" as="targetPoint" />
          </mxGeometry>
        </mxCell>
        <mxCell id="wuM9vbmEsTmZqt_nUGYa-17" style="edgeStyle=none;curved=1;rounded=0;orthogonalLoop=1;jettySize=auto;html=1;strokeColor=#0B4D6A;fontSize=12;startSize=8;endSize=8;" parent="UEzPUAAOIrF-is8g5C7q-107" source="wuM9vbmEsTmZqt_nUGYa-20" target="wuM9vbmEsTmZqt_nUGYa-15" edge="1">
          <mxGeometry relative="1" as="geometry" />
        </mxCell>
        <mxCell id="wuM9vbmEsTmZqt_nUGYa-21" value="" style="edgeStyle=none;curved=1;rounded=0;orthogonalLoop=1;jettySize=auto;html=1;strokeColor=#0B4D6A;fontSize=12;startSize=8;endSize=8;" parent="UEzPUAAOIrF-is8g5C7q-107" source="wuM9vbmEsTmZqt_nUGYa-16" target="wuM9vbmEsTmZqt_nUGYa-20" edge="1">
          <mxGeometry relative="1" as="geometry">
            <mxPoint x="400" y="100" as="sourcePoint" />
            <mxPoint x="401" y="275" as="targetPoint" />
          </mxGeometry>
        </mxCell>
        <mxCell id="wuM9vbmEsTmZqt_nUGYa-20" value="?" style="sketch=0;outlineConnect=0;fontColor=#232F3E;gradientColor=none;fillColor=#ED7100;strokeColor=none;dashed=0;verticalLabelPosition=bottom;verticalAlign=top;align=center;html=1;fontSize=12;fontStyle=0;aspect=fixed;pointerEvents=1;shape=mxgraph.aws4.container_1;" parent="UEzPUAAOIrF-is8g5C7q-107" vertex="1">
          <mxGeometry x="377" y="144" width="48" height="31" as="geometry" />
        </mxCell>
        <mxCell id="wuM9vbmEsTmZqt_nUGYa-29" value="ECR" style="whiteSpace=wrap;html=1;strokeColor=none;fillColor=none;" parent="UEzPUAAOIrF-is8g5C7q-107" vertex="1">
          <mxGeometry x="362" y="282" width="78" height="60" as="geometry" />
        </mxCell>
        <mxCell id="wuM9vbmEsTmZqt_nUGYa-32" value="CLUSTER ECS - FARGATE LAUNCH" style="whiteSpace=wrap;html=1;strokeColor=none;fillColor=none;" parent="UEzPUAAOIrF-is8g5C7q-107" vertex="1">
          <mxGeometry x="630" y="225" width="100" height="68" as="geometry" />
        </mxCell>
        <mxCell id="wuM9vbmEsTmZqt_nUGYa-33" value="IMAAGINE cONTAINE" style="whiteSpace=wrap;html=1;fillColor=none;strokeColor=none;" parent="UEzPUAAOIrF-is8g5C7q-107" vertex="1">
          <mxGeometry x="404" y="127.5" width="120" height="60" as="geometry" />
        </mxCell>
        <mxCell id="wuM9vbmEsTmZqt_nUGYa-67" value="" style="edgeStyle=none;curved=1;rounded=0;orthogonalLoop=1;jettySize=auto;html=1;fontSize=12;startSize=8;endSize=8;" parent="UEzPUAAOIrF-is8g5C7q-107" source="wuM9vbmEsTmZqt_nUGYa-37" target="wuM9vbmEsTmZqt_nUGYa-43" edge="1">
          <mxGeometry relative="1" as="geometry" />
        </mxCell>
        <mxCell id="wuM9vbmEsTmZqt_nUGYa-84" style="edgeStyle=none;curved=1;rounded=0;orthogonalLoop=1;jettySize=auto;html=1;fontSize=12;startSize=8;endSize=8;" parent="UEzPUAAOIrF-is8g5C7q-107" source="wuM9vbmEsTmZqt_nUGYa-37" target="wuM9vbmEsTmZqt_nUGYa-45" edge="1">
          <mxGeometry relative="1" as="geometry" />
        </mxCell>
        <mxCell id="wuM9vbmEsTmZqt_nUGYa-37" value="" style="sketch=0;outlineConnect=0;fontColor=#232F3E;gradientColor=none;fillColor=#ED7100;strokeColor=none;dashed=0;verticalLabelPosition=bottom;verticalAlign=top;align=center;html=1;fontSize=12;fontStyle=0;aspect=fixed;pointerEvents=1;shape=mxgraph.aws4.ecs_service;" parent="UEzPUAAOIrF-is8g5C7q-107" vertex="1">
          <mxGeometry x="548.1" y="339" width="39.81" height="49" as="geometry" />
        </mxCell>
        <mxCell id="wuM9vbmEsTmZqt_nUGYa-38" style="edgeStyle=none;curved=1;rounded=0;orthogonalLoop=1;jettySize=auto;html=1;strokeColor=#0B4D6A;fontSize=12;startSize=8;endSize=8;" parent="UEzPUAAOIrF-is8g5C7q-107" source="wuM9vbmEsTmZqt_nUGYa-37" target="wuM9vbmEsTmZqt_nUGYa-22" edge="1">
          <mxGeometry relative="1" as="geometry" />
        </mxCell>
        <mxCell id="wuM9vbmEsTmZqt_nUGYa-48" value="" style="edgeStyle=none;curved=1;rounded=0;orthogonalLoop=1;jettySize=auto;html=1;strokeColor=#0B4D6A;fontSize=12;startSize=8;endSize=8;" parent="UEzPUAAOIrF-is8g5C7q-107" source="wuM9vbmEsTmZqt_nUGYa-43" target="wuM9vbmEsTmZqt_nUGYa-46" edge="1">
          <mxGeometry relative="1" as="geometry" />
        </mxCell>
        <mxCell id="wuM9vbmEsTmZqt_nUGYa-68" value="" style="edgeStyle=none;curved=1;rounded=0;orthogonalLoop=1;jettySize=auto;html=1;fontSize=12;startSize=8;endSize=8;" parent="UEzPUAAOIrF-is8g5C7q-107" source="wuM9vbmEsTmZqt_nUGYa-43" target="wuM9vbmEsTmZqt_nUGYa-37" edge="1">
          <mxGeometry relative="1" as="geometry" />
        </mxCell>
        <mxCell id="wuM9vbmEsTmZqt_nUGYa-43" value="" style="sketch=0;outlineConnect=0;fontColor=#232F3E;gradientColor=none;fillColor=#ED7100;strokeColor=none;dashed=0;verticalLabelPosition=bottom;verticalAlign=top;align=center;html=1;fontSize=12;fontStyle=0;aspect=fixed;pointerEvents=1;shape=mxgraph.aws4.container_2;" parent="UEzPUAAOIrF-is8g5C7q-107" vertex="1">
          <mxGeometry x="703.71" y="340" width="76.71" height="49.54" as="geometry" />
        </mxCell>
        <mxCell id="wuM9vbmEsTmZqt_nUGYa-49" value="" style="edgeStyle=none;curved=1;rounded=0;orthogonalLoop=1;jettySize=auto;html=1;strokeColor=#0B4D6A;fontSize=12;startSize=8;endSize=8;" parent="UEzPUAAOIrF-is8g5C7q-107" source="wuM9vbmEsTmZqt_nUGYa-45" target="wuM9vbmEsTmZqt_nUGYa-46" edge="1">
          <mxGeometry relative="1" as="geometry" />
        </mxCell>
        <mxCell id="wuM9vbmEsTmZqt_nUGYa-53" value="" style="edgeStyle=none;curved=1;rounded=0;orthogonalLoop=1;jettySize=auto;html=1;strokeColor=#0B4D6A;fontSize=12;startSize=8;endSize=8;" parent="UEzPUAAOIrF-is8g5C7q-107" source="wuM9vbmEsTmZqt_nUGYa-45" target="wuM9vbmEsTmZqt_nUGYa-51" edge="1">
          <mxGeometry relative="1" as="geometry" />
        </mxCell>
        <mxCell id="wuM9vbmEsTmZqt_nUGYa-45" value="" style="sketch=0;outlineConnect=0;fontColor=#232F3E;gradientColor=none;fillColor=#8C4FFF;strokeColor=none;dashed=0;verticalLabelPosition=bottom;verticalAlign=top;align=center;html=1;fontSize=12;fontStyle=0;aspect=fixed;pointerEvents=1;shape=mxgraph.aws4.application_load_balancer;" parent="UEzPUAAOIrF-is8g5C7q-107" vertex="1">
          <mxGeometry x="704.0000000000001" y="528" width="78" height="78" as="geometry" />
        </mxCell>
        <mxCell id="wuM9vbmEsTmZqt_nUGYa-47" value="" style="edgeStyle=none;curved=1;rounded=0;orthogonalLoop=1;jettySize=auto;html=1;strokeColor=#0B4D6A;fontSize=12;startSize=8;endSize=8;" parent="UEzPUAAOIrF-is8g5C7q-107" source="wuM9vbmEsTmZqt_nUGYa-46" target="wuM9vbmEsTmZqt_nUGYa-43" edge="1">
          <mxGeometry relative="1" as="geometry" />
        </mxCell>
        <mxCell id="wuM9vbmEsTmZqt_nUGYa-50" value="" style="edgeStyle=none;curved=1;rounded=0;orthogonalLoop=1;jettySize=auto;html=1;strokeColor=#0B4D6A;fontSize=12;startSize=8;endSize=8;" parent="UEzPUAAOIrF-is8g5C7q-107" source="wuM9vbmEsTmZqt_nUGYa-46" target="wuM9vbmEsTmZqt_nUGYa-45" edge="1">
          <mxGeometry relative="1" as="geometry" />
        </mxCell>
        <mxCell id="wuM9vbmEsTmZqt_nUGYa-46" value="" style="sketch=0;outlineConnect=0;fontColor=#232F3E;gradientColor=none;fillColor=#ED7100;strokeColor=none;dashed=0;verticalLabelPosition=bottom;verticalAlign=top;align=center;html=1;fontSize=12;fontStyle=0;aspect=fixed;pointerEvents=1;shape=mxgraph.aws4.auto_scaling2;" parent="UEzPUAAOIrF-is8g5C7q-107" vertex="1">
          <mxGeometry x="712.5" y="428" width="61" height="61" as="geometry" />
        </mxCell>
        <mxCell id="wuM9vbmEsTmZqt_nUGYa-52" value="" style="edgeStyle=none;curved=1;rounded=0;orthogonalLoop=1;jettySize=auto;html=1;strokeColor=#0B4D6A;fontSize=12;startSize=8;endSize=8;" parent="UEzPUAAOIrF-is8g5C7q-107" source="wuM9vbmEsTmZqt_nUGYa-51" target="wuM9vbmEsTmZqt_nUGYa-45" edge="1">
          <mxGeometry relative="1" as="geometry" />
        </mxCell>
        <mxCell id="wuM9vbmEsTmZqt_nUGYa-51" value="" style="sketch=0;points=[[0,0,0],[0.25,0,0],[0.5,0,0],[0.75,0,0],[1,0,0],[0,1,0],[0.25,1,0],[0.5,1,0],[0.75,1,0],[1,1,0],[0,0.25,0],[0,0.5,0],[0,0.75,0],[1,0.25,0],[1,0.5,0],[1,0.75,0]];outlineConnect=0;fontColor=#232F3E;fillColor=#DD344C;strokeColor=#ffffff;dashed=0;verticalLabelPosition=bottom;verticalAlign=top;align=center;html=1;fontSize=12;fontStyle=0;aspect=fixed;shape=mxgraph.aws4.resourceIcon;resIcon=mxgraph.aws4.waf;" parent="UEzPUAAOIrF-is8g5C7q-107" vertex="1">
          <mxGeometry x="835" y="525" width="78" height="78" as="geometry" />
        </mxCell>
        <mxCell id="wuM9vbmEsTmZqt_nUGYa-28" value="" style="sketch=0;points=[[0,0,0],[0.25,0,0],[0.5,0,0],[0.75,0,0],[1,0,0],[0,1,0],[0.25,1,0],[0.5,1,0],[0.75,1,0],[1,1,0],[0,0.25,0],[0,0.5,0],[0,0.75,0],[1,0.25,0],[1,0.5,0],[1,0.75,0]];outlineConnect=0;fontColor=#232F3E;fillColor=#ED7100;strokeColor=#ffffff;dashed=0;verticalLabelPosition=bottom;verticalAlign=top;align=center;html=1;fontSize=12;fontStyle=0;aspect=fixed;shape=mxgraph.aws4.resourceIcon;resIcon=mxgraph.aws4.fargate;" parent="UEzPUAAOIrF-is8g5C7q-107" vertex="1">
          <mxGeometry x="590" y="180" width="50" height="50" as="geometry" />
        </mxCell>
        <mxCell id="wuM9vbmEsTmZqt_nUGYa-54" value="Subnet" style="sketch=0;outlineConnect=0;html=1;whiteSpace=wrap;fontSize=12;fontStyle=0;shape=mxgraph.aws4.group;grIcon=mxgraph.aws4.group_subnet;strokeColor=#6c8ebf;fillColor=none;verticalAlign=top;align=left;spacingLeft=30;dashed=0;" parent="UEzPUAAOIrF-is8g5C7q-107" vertex="1">
          <mxGeometry x="5" y="-60" width="935" height="790" as="geometry" />
        </mxCell>
        <mxCell id="wuM9vbmEsTmZqt_nUGYa-83" value="" style="edgeStyle=none;curved=1;rounded=0;orthogonalLoop=1;jettySize=auto;html=1;fontSize=12;startSize=8;endSize=8;" parent="UEzPUAAOIrF-is8g5C7q-107" source="wuM9vbmEsTmZqt_nUGYa-37" target="wuM9vbmEsTmZqt_nUGYa-46" edge="1">
          <mxGeometry relative="1" as="geometry" />
        </mxCell>
        <mxCell id="wuM9vbmEsTmZqt_nUGYa-41" value="Ecs SERVICE DEPLOYED" style="fillColor=none;strokeColor=#5A6C86;dashed=1;verticalAlign=top;fontStyle=0;fontColor=#5A6C86;whiteSpace=wrap;html=1;" parent="UEzPUAAOIrF-is8g5C7q-107" vertex="1">
          <mxGeometry x="530" y="310" width="280" height="310" as="geometry" />
        </mxCell>
        <mxCell id="wuM9vbmEsTmZqt_nUGYa-86" value="" style="sketch=0;outlineConnect=0;fontColor=#232F3E;gradientColor=none;fillColor=#C925D1;strokeColor=none;dashed=0;verticalLabelPosition=bottom;verticalAlign=top;align=center;html=1;fontSize=12;fontStyle=0;aspect=fixed;pointerEvents=1;shape=mxgraph.aws4.rds_mysql_instance;" parent="UEzPUAAOIrF-is8g5C7q-107" vertex="1">
          <mxGeometry x="1140" y="370" width="78" height="78" as="geometry" />
        </mxCell>
        <mxCell id="wuM9vbmEsTmZqt_nUGYa-89" value="" style="sketch=0;points=[[0,0,0],[0.25,0,0],[0.5,0,0],[0.75,0,0],[1,0,0],[0,1,0],[0.25,1,0],[0.5,1,0],[0.75,1,0],[1,1,0],[0,0.25,0],[0,0.5,0],[0,0.75,0],[1,0.25,0],[1,0.5,0],[1,0.75,0]];outlineConnect=0;fontColor=#232F3E;fillColor=#C925D1;strokeColor=#ffffff;dashed=0;verticalLabelPosition=bottom;verticalAlign=top;align=center;html=1;fontSize=12;fontStyle=0;aspect=fixed;shape=mxgraph.aws4.resourceIcon;resIcon=mxgraph.aws4.rds;" parent="UEzPUAAOIrF-is8g5C7q-107" vertex="1">
          <mxGeometry x="1200" y="282" width="78" height="78" as="geometry" />
        </mxCell>
        <mxCell id="wuM9vbmEsTmZqt_nUGYa-92" value="Security group" style="fillColor=none;strokeColor=#DD3522;verticalAlign=top;fontStyle=0;fontColor=#DD3522;whiteSpace=wrap;html=1;" parent="UEzPUAAOIrF-is8g5C7q-107" vertex="1">
          <mxGeometry x="510" y="130" width="410" height="580" as="geometry" />
        </mxCell>
        <mxCell id="UEzPUAAOIrF-is8g5C7q-74" value="AWS Cloud" style="points=[[0,0],[0.25,0],[0.5,0],[0.75,0],[1,0],[1,0.25],[1,0.5],[1,0.75],[1,1],[0.75,1],[0.5,1],[0.25,1],[0,1],[0,0.75],[0,0.5],[0,0.25]];outlineConnect=0;gradientColor=none;html=1;whiteSpace=wrap;fontSize=12;fontStyle=0;shape=mxgraph.aws4.group;grIcon=mxgraph.aws4.group_aws_cloud_alt;strokeColor=#232F3E;fillColor=none;verticalAlign=top;align=left;spacingLeft=30;fontColor=#232F3E;dashed=0;labelBackgroundColor=#ffffff;container=1;pointerEvents=0;collapsible=0;recursiveResize=0;" parent="1" vertex="1">
          <mxGeometry x="140" y="-70" width="1450" height="980" as="geometry" />
        </mxCell>
        <mxCell id="wuM9vbmEsTmZqt_nUGYa-25" value="VPC" style="points=[[0,0],[0.25,0],[0.5,0],[0.75,0],[1,0],[1,0.25],[1,0.5],[1,0.75],[1,1],[0.75,1],[0.5,1],[0.25,1],[0,1],[0,0.75],[0,0.5],[0,0.25]];outlineConnect=0;gradientColor=none;html=1;whiteSpace=wrap;fontSize=12;fontStyle=0;container=1;pointerEvents=0;collapsible=0;recursiveResize=0;shape=mxgraph.aws4.group;grIcon=mxgraph.aws4.group_vpc2;strokeColor=#8C4FFF;fillColor=none;verticalAlign=top;align=left;spacingLeft=30;fontColor=#AAB7B8;dashed=0;" parent="1" vertex="1">
          <mxGeometry x="170" y="-40" width="1400" height="920" as="geometry" />
        </mxCell>
        <mxCell id="wuM9vbmEsTmZqt_nUGYa-55" value="eu-central-1b&amp;nbsp;&lt;br&gt;eu-central-1a&lt;br&gt;Public Subnet" style="whiteSpace=wrap;html=1;" parent="wuM9vbmEsTmZqt_nUGYa-25" vertex="1">
          <mxGeometry x="783.42" y="49" width="120" height="60" as="geometry" />
        </mxCell>
        <mxCell id="wuM9vbmEsTmZqt_nUGYa-101" value="Security group" style="fillColor=none;strokeColor=#DD3522;verticalAlign=top;fontStyle=0;fontColor=#DD3522;whiteSpace=wrap;html=1;" parent="wuM9vbmEsTmZqt_nUGYa-25" vertex="1">
          <mxGeometry x="1101" y="203" width="209" height="524" as="geometry" />
        </mxCell>
        <mxCell id="wuM9vbmEsTmZqt_nUGYa-112" value="Subnet" style="sketch=0;outlineConnect=0;gradientColor=none;html=1;whiteSpace=wrap;fontSize=12;fontStyle=0;shape=mxgraph.aws4.group;grIcon=mxgraph.aws4.group_subnet;strokeColor=#879196;fillColor=none;verticalAlign=top;align=left;spacingLeft=30;fontColor=#879196;dashed=0;" parent="wuM9vbmEsTmZqt_nUGYa-25" vertex="1">
          <mxGeometry x="1050" y="40" width="330" height="790" as="geometry" />
        </mxCell>
        <mxCell id="wuM9vbmEsTmZqt_nUGYa-114" value="eu-central-1b&amp;nbsp;&lt;br&gt;eu-central-1a&lt;br&gt;Public Subnet" style="whiteSpace=wrap;html=1;" parent="wuM9vbmEsTmZqt_nUGYa-25" vertex="1">
          <mxGeometry x="1250" y="49" width="120" height="60" as="geometry" />
        </mxCell>
        <mxCell id="wuM9vbmEsTmZqt_nUGYa-1" value="" style="sketch=0;outlineConnect=0;fontColor=#232F3E;gradientColor=none;fillColor=#232F3D;strokeColor=none;dashed=0;verticalLabelPosition=bottom;verticalAlign=top;align=center;html=1;fontSize=12;fontStyle=0;aspect=fixed;pointerEvents=1;shape=mxgraph.aws4.authenticated_user;" parent="1" vertex="1">
          <mxGeometry x="281" width="50" height="50" as="geometry" />
        </mxCell>
        <mxCell id="wuM9vbmEsTmZqt_nUGYa-113" value="" style="edgeStyle=none;curved=1;rounded=0;orthogonalLoop=1;jettySize=auto;html=1;fontSize=12;startSize=8;endSize=8;" parent="1" source="wuM9vbmEsTmZqt_nUGYa-1" target="WlgoB8xV70YwmdUqYnxU-7" edge="1">
          <mxGeometry relative="1" as="geometry" />
        </mxCell>
        <mxCell id="wuM9vbmEsTmZqt_nUGYa-124" value="" style="edgeStyle=none;curved=1;rounded=0;orthogonalLoop=1;jettySize=auto;html=1;fontSize=12;startSize=8;endSize=8;" parent="1" target="wuM9vbmEsTmZqt_nUGYa-101" edge="1">
          <mxGeometry relative="1" as="geometry">
            <mxPoint x="1192" y="423.23980815347704" as="sourcePoint" />
          </mxGeometry>
        </mxCell>
        <mxCell id="wuM9vbmEsTmZqt_nUGYa-126" value="" style="edgeStyle=none;curved=1;rounded=0;orthogonalLoop=1;jettySize=auto;html=1;fontSize=12;startSize=8;endSize=8;" parent="1" edge="1">
          <mxGeometry relative="1" as="geometry">
            <mxPoint x="960" y="420" as="targetPoint" />
            <mxPoint x="1142" y="422.6376811594205" as="sourcePoint" />
          </mxGeometry>
        </mxCell>
        <mxCell id="wuM9vbmEsTmZqt_nUGYa-118" style="edgeStyle=none;curved=1;rounded=0;orthogonalLoop=1;jettySize=auto;html=1;fontSize=12;startSize=8;endSize=8;" parent="1" source="wuM9vbmEsTmZqt_nUGYa-43" edge="1">
          <mxGeometry relative="1" as="geometry">
            <mxPoint x="1142" y="422.8793810186912" as="targetPoint" />
          </mxGeometry>
        </mxCell>
        <mxCell id="wuM9vbmEsTmZqt_nUGYa-125" value="" style="edgeStyle=none;curved=1;rounded=0;orthogonalLoop=1;jettySize=auto;html=1;fontSize=12;startSize=8;endSize=8;" parent="1" source="wuM9vbmEsTmZqt_nUGYa-101" edge="1">
          <mxGeometry relative="1" as="geometry">
            <mxPoint x="1192" y="423.23980815347704" as="targetPoint" />
          </mxGeometry>
        </mxCell>
      </root>
    </mxGraphModel>
  </diagram>
  <diagram id="ucpXYvyoQpwKEohuX7Lk" name="Page-2">
    <mxGraphModel dx="794" dy="902" grid="0" gridSize="10" guides="1" tooltips="1" connect="1" arrows="1" fold="1" page="0" pageScale="1" pageWidth="827" pageHeight="1169" math="0" shadow="0">
      <root>
        <mxCell id="0" />
        <mxCell id="1" parent="0" />
      </root>
    </mxGraphModel>
  </diagram>
</mxfile>
